<svg xmlns="http://www.w3.org/2000/svg" viewBox="-138 -90 228 180"><path d="M 61.6595,88.0588 L 69.0997,82.3498 L 76.014,76.014 L 82.3498,69.0997 L 88.0588,61.6595 L 89.135,59.9702 L 89.135,-59.9702 L 88.0588,-61.6595 L 82.3498,-69.0997 L 76.014,-76.014 L 69.0997,-82.3498 L 61.6595,-88.0588 L 59.9702,-89.135 L -59.9702,-89.135 L -61.6595,-88.0588 L -69.0997,-82.3498 L -76.014,-76.014 L -82.3498,-69.0997 L -88.0588,-61.6595 L -89.135,-59.9702 L -89.135,-30 L -135.5,-30 L -135.674,-29.9924 L -135.847,-29.9696 L -136.018,-29.9319 L -136.184,-29.8794 L -136.345,-29.8126 L -136.5,-29.732 L -136.647,-29.6383 L -136.786,-29.5321 L -136.914,-29.4142 L -137.032,-29.2856 L -137.138,-29.1472 L -137.232,-29 L -137.313,-28.8452 L -137.379,-28.684 L -137.432,-28.5176 L -137.47,-28.3473 L -137.492,-28.1743 L -137.5,-28 L -137.5,8 L -137.492,8.17431 L -137.47,8.3473 L -137.432,8.51764 L -137.379,8.68404 L -137.313,8.84524 L -137.232,9 L -137.138,9.14715 L -137.032,9.28557 L -136.914,9.41421 L -136.786,9.53209 L -136.647,9.6383 L -136.5,9.73205 L -136.345,9.81262 L -136.184,9.87938 L -136.018,9.93185 L -135.847,9.96961 L -135.674,9.99239 L -135.5,10 L -89.135,10 L -89.135,59.9702 L -88.0588,61.6595 L -82.3498,69.0997 L -76.014,76.014 L -69.0997,82.3498 L -61.6595,88.0588 L -59.9702,89.135 L 59.9702,89.135 z" fill="currentColor"/></svg>
